<svg version="1.1" xmlns="http://www.w3.org/2000/svg" viewBox="0 0 197 98" width="197" height="98">
  <!-- svg-source:excalidraw -->
  
  <defs>
    <style>
      @font-face {
        font-family: "Virgil";
        src: url("https://excalidraw.com/Virgil.woff2");
      }
      @font-face {
        font-family: "Cascadia";
        src: url("https://excalidraw.com/Cascadia.woff2");
      }
    </style>
  </defs>
  <rect x="0" y="0" width="197" height="98" fill="transparent"></rect><g stroke-linecap="round" transform="translate(10 10) rotate(0 88.5 39)"><path d="M19.5 0 L157.5 0 L166.03 1.22 L172.13 4.88 L174.26 7.62 L176.7 14.93 L177 58.5 L175.78 67.03 L174.26 70.38 L169.38 75.26 L166.03 76.78 L157.5 78 L19.5 78 L10.97 76.78 L4.88 73.13 L2.74 70.38 L0.3 63.07 L0.3 14.93 L1.22 10.97 L4.88 4.88 L10.97 1.22 L19.5 0" stroke="none" stroke-width="0" fill="#FFF"></path><path d="M19.5 0 M19.5 0 C53.3 0, 87.1 0, 157.5 0 M19.5 0 C69.02 0, 118.53 0, 157.5 0 M157.5 0 C170.5 0, 177 6.5, 177 19.5 M157.5 0 C170.5 0, 177 6.5, 177 19.5 M177 19.5 C177 31.1, 177 42.71, 177 58.5 M177 19.5 C177 35.1, 177 50.7, 177 58.5 M177 58.5 C177 71.5, 170.5 78, 157.5 78 M177 58.5 C177 71.5, 170.5 78, 157.5 78 M157.5 78 C118.33 78, 79.15 78, 19.5 78 M157.5 78 C102.49 78, 47.47 78, 19.5 78 M19.5 78 C6.5 78, 0 71.5, 0 58.5 M19.5 78 C6.5 78, 0 71.5, 0 58.5 M0 58.5 C0 46.94, 0 35.39, 0 19.5 M0 58.5 C0 47.13, 0 35.77, 0 19.5 M0 19.5 C0 6.5, 6.5 0, 19.5 0 M0 19.5 C0 6.5, 6.5 0, 19.5 0" stroke="#4285f4" stroke-width="2" fill="none"></path></g><g transform="translate(70 41) rotate(0 45 8)"><text x="0" y="12" font-family="Helvetica, Segoe UI Emoji" font-size="12px" fill="#000000" text-anchor="start" style="white-space: pre;" direction="ltr">Cloud Functions</text></g><g stroke-linecap="round"><g transform="translate(26.983154773712158 54.45099639892578) rotate(0 2.320827007293701 -5.507274627685547)" fill-rule="evenodd"><path d="M0 0 L4.64 3.77 L4.64 -14.79 L0 -11.03 L0 0" stroke="none" stroke-width="0" fill="#669df6" fill-rule="evenodd"></path><path d="M0 0 C1.57 1.27, 3.13 2.55, 4.64 3.77 M0 0 C1.41 1.14, 2.81 2.29, 4.64 3.77 M4.64 3.77 C4.64 -0.42, 4.64 -4.6, 4.64 -14.79 M4.64 3.77 C4.64 -1.91, 4.64 -7.59, 4.64 -14.79 M4.64 -14.79 C2.9 -13.38, 1.16 -11.97, 0 -11.03 M4.64 -14.79 C3.12 -13.55, 1.59 -12.32, 0 -11.03 M0 -11.03 C0 -6.97, 0 -2.91, 0 0 M0 -11.03 C0 -7.49, 0 -3.96, 0 0 M0 0 C0 0, 0 0, 0 0 M0 0 C0 0, 0 0, 0 0" stroke="#00000000" stroke-width="1" fill="none"></path></g></g><g stroke-linecap="round"><g transform="translate(26.983154773712158 45.84839344024658) rotate(0 2.320827007293701 -3.0926499366760254)" fill-rule="evenodd"><path d="M0 0 L4.64 -3.09 L4.64 -6.19 L0 0" stroke="none" stroke-width="0" fill="#4285f4" fill-rule="evenodd"></path><path d="M0 0 C1.26 -0.84, 2.52 -1.68, 4.64 -3.09 M0 0 C1.78 -1.18, 3.56 -2.37, 4.64 -3.09 M4.64 -3.09 C4.64 -4.22, 4.64 -5.35, 4.64 -6.19 M4.64 -3.09 C4.64 -4.2, 4.64 -5.31, 4.64 -6.19 M4.64 -6.19 C3.59 -4.78, 2.53 -3.38, 0 0 M4.64 -6.19 C3.16 -4.21, 1.68 -2.23, 0 0 M0 0 C0 0, 0 0, 0 0 M0 0 C0 0, 0 0, 0 0" stroke="#00000000" stroke-width="1" fill="none"></path></g></g><g stroke-linecap="round"><g transform="translate(31.62480878829956 58.22434997558594) rotate(0 -2.320827007293701 -3.0953292846679688)" fill-rule="evenodd"><path d="M0 0 L0 -3.09 L-4.64 -6.19 L0 0" stroke="none" stroke-width="0" fill="#4285f4" fill-rule="evenodd"></path><path d="M0 0 C0 -1.08, 0 -2.17, 0 -3.09 M0 0 C0 -1.01, 0 -2.02, 0 -3.09 M0 -3.09 C-1.7 -4.23, -3.41 -5.37, -4.64 -6.19 M0 -3.09 C-0.93 -3.72, -1.87 -4.34, -4.64 -6.19 M-4.64 -6.19 C-3.1 -4.13, -1.55 -2.07, 0 0 M-4.64 -6.19 C-2.83 -3.78, -1.02 -1.37, 0 0 M0 0 C0 0, 0 0, 0 0 M0 0 C0 0, 0 0, 0 0" stroke="#00000000" stroke-width="1" fill="none"></path></g></g><g stroke-linecap="round"><g transform="translate(36.26110363006592 61.316999435424805) rotate(0 -4.63897442817688 -3.0953292846679688)" fill-rule="evenodd"><path d="M0 0 L-9.28 -9.28 L-9.28 -3.09 L-3.09 3.09 L0 0" stroke="none" stroke-width="0" fill="#aecbfa" fill-rule="evenodd"></path><path d="M0 0 C-2.96 -2.96, -5.91 -5.91, -9.28 -9.28 M0 0 C-2.84 -2.85, -5.69 -5.69, -9.28 -9.28 M-9.28 -9.28 C-9.28 -7.04, -9.28 -4.79, -9.28 -3.09 M-9.28 -9.28 C-9.28 -7.41, -9.28 -5.53, -9.28 -3.09 M-9.28 -3.09 C-7.06 -0.87, -4.84 1.35, -3.09 3.09 M-9.28 -3.09 C-7.24 -1.06, -5.21 0.98, -3.09 3.09 M-3.09 3.09 C-1.86 1.86, -0.62 0.62, 0 0 M-3.09 3.09 C-1.87 1.87, -0.65 0.65, 0 0 M0 0 C0 0, 0 0, 0 0 M0 0 C0 0, 0 0, 0 0" stroke="#00000000" stroke-width="1" fill="none"></path></g></g><g stroke-linecap="round"><g transform="translate(33.152374267578125 33.49387454986572) rotate(0 -1.5356056690216064 6.17725944519043)" fill-rule="evenodd"><path d="M0 0 L-6.17 6.17 L-6.15 12.35 L3.1 3.09 L0 0" stroke="none" stroke-width="0" fill="#aecbfa" fill-rule="evenodd"></path><path d="M0 0 C-1.8 1.8, -3.6 3.6, -6.17 6.17 M0 0 C-2.12 2.12, -4.24 4.24, -6.17 6.17 M-6.17 6.17 C-6.17 7.56, -6.16 8.96, -6.15 12.35 M-6.17 6.17 C-6.17 7.48, -6.16 8.79, -6.15 12.35 M-6.15 12.35 C-3.74 9.93, -1.32 7.51, 3.1 3.09 M-6.15 12.35 C-2.67 8.86, 0.82 5.37, 3.1 3.09 M3.1 3.09 C2.21 2.21, 1.33 1.33, 0 0 M3.1 3.09 C2 2, 0.91 0.9, 0 0 M0 0 C0 0, 0 0, 0 0 M0 0 C0 0, 0 0, 0 0" stroke="#00000000" stroke-width="1" fill="none"></path></g></g><g stroke-linecap="round"><g transform="translate(57.915008544921875 43.45252704620361) rotate(0 -2.318147659301758 5.507274150848389)" fill-rule="evenodd"><path d="M0 0 L-4.64 -3.77 L-4.64 14.79 L0 11.04 L0 0" stroke="none" stroke-width="0" fill="#669df6" fill-rule="evenodd"></path><path d="M0 0 C-1.84 -1.5, -3.69 -3, -4.64 -3.77 M0 0 C-1.84 -1.49, -3.67 -2.99, -4.64 -3.77 M-4.64 -3.77 C-4.64 1.9, -4.64 7.57, -4.64 14.79 M-4.64 -3.77 C-4.64 0.34, -4.64 4.45, -4.64 14.79 M-4.64 14.79 C-2.81 13.31, -0.99 11.84, 0 11.04 M-4.64 14.79 C-2.9 13.39, -1.17 11.99, 0 11.04 M0 11.04 C0 6.8, 0 2.56, 0 0 M0 11.04 C0 7.73, 0 4.41, 0 0 M0 0 C0 0, 0 0, 0 0 M0 0 C0 0, 0 0, 0 0" stroke="#00000000" stroke-width="1" fill="none"></path></g></g><g stroke-linecap="round"><g transform="translate(57.915008544921875 52.04977035522461) rotate(0 -2.318147659301758 3.0953292846679688)" fill-rule="evenodd"><path d="M0 0 L-4.64 3.09 L-4.64 6.19 L0 0" stroke="none" stroke-width="0" fill="#4285f4" fill-rule="evenodd"></path><path d="M0 0 C-1.85 1.24, -3.71 2.47, -4.64 3.09 M0 0 C-1.55 1.04, -3.11 2.07, -4.64 3.09 M-4.64 3.09 C-4.64 3.89, -4.64 4.69, -4.64 6.19 M-4.64 3.09 C-4.64 4.2, -4.64 5.32, -4.64 6.19 M-4.64 6.19 C-2.93 3.91, -1.23 1.64, 0 0 M-4.64 6.19 C-3.15 4.21, -1.67 2.23, 0 0 M0 0 C0 0, 0 0, 0 0 M0 0 C0 0, 0 0, 0 0" stroke="#00000000" stroke-width="1" fill="none"></path></g></g><g stroke-linecap="round"><g transform="translate(53.27871322631836 39.67917346954346) rotate(0 2.318147659301758 3.092649459838867)" fill-rule="evenodd"><path d="M0 0 L0 3.09 L4.64 6.19 L0 0" stroke="none" stroke-width="0" fill="#4285f4" fill-rule="evenodd"></path><path d="M0 0 C0 0.73, 0 1.47, 0 3.09 M0 0 C0 1.24, 0 2.47, 0 3.09 M0 3.09 C1.08 3.81, 2.15 4.53, 4.64 6.19 M0 3.09 C1.14 3.85, 2.27 4.61, 4.64 6.19 M4.64 6.19 C3.49 4.65, 2.34 3.12, 0 0 M4.64 6.19 C3.26 4.34, 1.88 2.5, 0 0 M0 0 C0 0, 0 0, 0 0 M0 0 C0 0, 0 0, 0 0" stroke="#00000000" stroke-width="1" fill="none"></path></g></g><g stroke-linecap="round"><g transform="translate(48.63706016540527 36.58652400970459) rotate(0 4.638974189758301 3.092649459838867)" fill-rule="evenodd"><path d="M0 0 L9.28 9.28 L9.28 3.09 L3.09 -3.09 L0 0" stroke="none" stroke-width="0" fill="#aecbfa" fill-rule="evenodd"></path><path d="M0 0 C2.28 2.28, 4.56 4.56, 9.28 9.28 M0 0 C3.04 3.04, 6.08 6.08, 9.28 9.28 M9.28 9.28 C9.28 7.73, 9.28 6.19, 9.28 3.09 M9.28 9.28 C9.28 7.94, 9.28 6.61, 9.28 3.09 M9.28 3.09 C6.92 0.74, 4.57 -1.62, 3.09 -3.09 M9.28 3.09 C7.37 1.19, 5.47 -0.71, 3.09 -3.09 M3.09 -3.09 C2.47 -2.47, 1.84 -1.84, 0 0 M3.09 -3.09 C2.14 -2.14, 1.19 -1.19, 0 0 M0 0 C0 0, 0 0, 0 0 M0 0 C0 0, 0 0, 0 0" stroke="#00000000" stroke-width="1" fill="none"></path></g></g><g stroke-linecap="round"><g transform="translate(51.74578857421875 64.40964889526367) rotate(0 1.538285255432129 -6.179939270019531)" fill-rule="evenodd"><path d="M0 0 L6.17 -6.17 L6.15 -12.36 L-3.09 -3.09 L0 0" stroke="none" stroke-width="0" fill="#aecbfa" fill-rule="evenodd"></path><path d="M0 0 C1.37 -1.37, 2.73 -2.73, 6.17 -6.17 M0 0 C1.77 -1.77, 3.54 -3.54, 6.17 -6.17 M6.17 -6.17 C6.16 -8.28, 6.16 -10.39, 6.15 -12.36 M6.17 -6.17 C6.16 -8.13, 6.16 -10.09, 6.15 -12.36 M6.15 -12.36 C3.34 -9.54, 0.52 -6.72, -3.09 -3.09 M6.15 -12.36 C2.92 -9.12, -0.31 -5.88, -3.09 -3.09 M-3.09 -3.09 C-2.28 -2.28, -1.46 -1.46, 0 0 M-3.09 -3.09 C-2.37 -2.37, -1.64 -1.64, 0 0 M0 0 C0 0, 0 0, 0 0 M0 0 C0 0, 0 0, 0 0" stroke="#00000000" stroke-width="1" fill="none"></path></g></g><g stroke-linecap="round" transform="translate(34.712098121643066 47.3920373916626) rotate(0 1.5490046739578247 1.5490046739578247)"><path d="M3.1 1.55 C3.1 1.64, 3.09 1.73, 3.07 1.82 C3.06 1.91, 3.04 1.99, 3 2.08 C2.97 2.16, 2.94 2.25, 2.89 2.32 C2.85 2.4, 2.79 2.48, 2.74 2.54 C2.68 2.61, 2.61 2.68, 2.54 2.74 C2.48 2.79, 2.4 2.85, 2.32 2.89 C2.25 2.94, 2.16 2.97, 2.08 3 C1.99 3.04, 1.91 3.06, 1.82 3.07 C1.73 3.09, 1.64 3.1, 1.55 3.1 C1.46 3.1, 1.37 3.09, 1.28 3.07 C1.19 3.06, 1.1 3.04, 1.02 3 C0.93 2.97, 0.85 2.94, 0.77 2.89 C0.7 2.85, 0.62 2.79, 0.55 2.74 C0.48 2.68, 0.42 2.61, 0.36 2.54 C0.3 2.48, 0.25 2.4, 0.21 2.32 C0.16 2.25, 0.12 2.16, 0.09 2.08 C0.06 1.99, 0.04 1.91, 0.02 1.82 C0.01 1.73, 0 1.64, 0 1.55 C0 1.46, 0.01 1.37, 0.02 1.28 C0.04 1.19, 0.06 1.1, 0.09 1.02 C0.12 0.93, 0.16 0.85, 0.21 0.77 C0.25 0.7, 0.3 0.62, 0.36 0.55 C0.42 0.48, 0.48 0.42, 0.55 0.36 C0.62 0.3, 0.7 0.25, 0.77 0.21 C0.85 0.16, 0.93 0.12, 1.02 0.09 C1.1 0.06, 1.19 0.04, 1.28 0.02 C1.37 0.01, 1.46 0, 1.55 0 C1.64 0, 1.73 0.01, 1.82 0.02 C1.91 0.04, 1.99 0.06, 2.08 0.09 C2.16 0.12, 2.25 0.16, 2.32 0.21 C2.4 0.25, 2.48 0.3, 2.54 0.36 C2.61 0.42, 2.68 0.48, 2.74 0.55 C2.79 0.62, 2.85 0.7, 2.89 0.77 C2.94 0.85, 2.97 0.93, 3 1.02 C3.04 1.1, 3.06 1.19, 3.07 1.28 C3.09 1.37, 3.09 1.5, 3.1 1.55 C3.1 1.59, 3.1 1.5, 3.1 1.55" stroke="none" stroke-width="0" fill="#aecbfa"></path><path d="M3.1 1.55 C3.1 1.64, 3.09 1.73, 3.07 1.82 C3.06 1.91, 3.04 1.99, 3 2.08 C2.97 2.16, 2.94 2.25, 2.89 2.32 C2.85 2.4, 2.79 2.48, 2.74 2.54 C2.68 2.61, 2.61 2.68, 2.54 2.74 C2.48 2.79, 2.4 2.85, 2.32 2.89 C2.25 2.94, 2.16 2.97, 2.08 3 C1.99 3.04, 1.91 3.06, 1.82 3.07 C1.73 3.09, 1.64 3.1, 1.55 3.1 C1.46 3.1, 1.37 3.09, 1.28 3.07 C1.19 3.06, 1.1 3.04, 1.02 3 C0.93 2.97, 0.85 2.94, 0.77 2.89 C0.7 2.85, 0.62 2.79, 0.55 2.74 C0.48 2.68, 0.42 2.61, 0.36 2.54 C0.3 2.48, 0.25 2.4, 0.21 2.32 C0.16 2.25, 0.12 2.16, 0.09 2.08 C0.06 1.99, 0.04 1.91, 0.02 1.82 C0.01 1.73, 0 1.64, 0 1.55 C0 1.46, 0.01 1.37, 0.02 1.28 C0.04 1.19, 0.06 1.1, 0.09 1.02 C0.12 0.93, 0.16 0.85, 0.21 0.77 C0.25 0.7, 0.3 0.62, 0.36 0.55 C0.42 0.48, 0.48 0.42, 0.55 0.36 C0.62 0.3, 0.7 0.25, 0.77 0.21 C0.85 0.16, 0.93 0.12, 1.02 0.09 C1.1 0.06, 1.19 0.04, 1.28 0.02 C1.37 0.01, 1.46 0, 1.55 0 C1.64 0, 1.73 0.01, 1.82 0.02 C1.91 0.04, 1.99 0.06, 2.08 0.09 C2.16 0.12, 2.25 0.16, 2.32 0.21 C2.4 0.25, 2.48 0.3, 2.54 0.36 C2.61 0.42, 2.68 0.48, 2.74 0.55 C2.79 0.62, 2.85 0.7, 2.89 0.77 C2.94 0.85, 2.97 0.93, 3 1.02 C3.04 1.1, 3.06 1.19, 3.07 1.28 C3.09 1.37, 3.09 1.5, 3.1 1.55 C3.1 1.59, 3.1 1.5, 3.1 1.55" stroke="transparent" stroke-width="1" fill="none"></path></g><g stroke-linecap="round" transform="translate(40.90275764465332 47.3920373916626) rotate(0 1.5490046739578247 1.5490046739578247)"><path d="M3.1 1.55 C3.1 1.64, 3.09 1.73, 3.07 1.82 C3.06 1.91, 3.04 1.99, 3 2.08 C2.97 2.16, 2.94 2.25, 2.89 2.32 C2.85 2.4, 2.79 2.48, 2.74 2.54 C2.68 2.61, 2.61 2.68, 2.54 2.74 C2.48 2.79, 2.4 2.85, 2.32 2.89 C2.25 2.94, 2.16 2.97, 2.08 3 C1.99 3.04, 1.91 3.06, 1.82 3.07 C1.73 3.09, 1.64 3.1, 1.55 3.1 C1.46 3.1, 1.37 3.09, 1.28 3.07 C1.19 3.06, 1.1 3.04, 1.02 3 C0.93 2.97, 0.85 2.94, 0.77 2.89 C0.7 2.85, 0.62 2.79, 0.55 2.74 C0.48 2.68, 0.42 2.61, 0.36 2.54 C0.3 2.48, 0.25 2.4, 0.21 2.32 C0.16 2.25, 0.12 2.16, 0.09 2.08 C0.06 1.99, 0.04 1.91, 0.02 1.82 C0.01 1.73, 0 1.64, 0 1.55 C0 1.46, 0.01 1.37, 0.02 1.28 C0.04 1.19, 0.06 1.1, 0.09 1.02 C0.12 0.93, 0.16 0.85, 0.21 0.77 C0.25 0.7, 0.3 0.62, 0.36 0.55 C0.42 0.48, 0.48 0.42, 0.55 0.36 C0.62 0.3, 0.7 0.25, 0.77 0.21 C0.85 0.16, 0.93 0.12, 1.02 0.09 C1.1 0.06, 1.19 0.04, 1.28 0.02 C1.37 0.01, 1.46 0, 1.55 0 C1.64 0, 1.73 0.01, 1.82 0.02 C1.91 0.04, 1.99 0.06, 2.08 0.09 C2.16 0.12, 2.25 0.16, 2.32 0.21 C2.4 0.25, 2.48 0.3, 2.54 0.36 C2.61 0.42, 2.68 0.48, 2.74 0.55 C2.79 0.62, 2.85 0.7, 2.89 0.77 C2.94 0.85, 2.97 0.93, 3 1.02 C3.04 1.1, 3.06 1.19, 3.07 1.28 C3.09 1.37, 3.09 1.5, 3.1 1.55 C3.1 1.59, 3.1 1.5, 3.1 1.55" stroke="none" stroke-width="0" fill="#aecbfa"></path><path d="M3.1 1.55 C3.1 1.64, 3.09 1.73, 3.07 1.82 C3.06 1.91, 3.04 1.99, 3 2.08 C2.97 2.16, 2.94 2.25, 2.89 2.32 C2.85 2.4, 2.79 2.48, 2.74 2.54 C2.68 2.61, 2.61 2.68, 2.54 2.74 C2.48 2.79, 2.4 2.85, 2.32 2.89 C2.25 2.94, 2.16 2.97, 2.08 3 C1.99 3.04, 1.91 3.06, 1.82 3.07 C1.73 3.09, 1.64 3.1, 1.55 3.1 C1.46 3.1, 1.37 3.09, 1.28 3.07 C1.19 3.06, 1.1 3.04, 1.02 3 C0.93 2.97, 0.85 2.94, 0.77 2.89 C0.7 2.85, 0.62 2.79, 0.55 2.74 C0.48 2.68, 0.42 2.61, 0.36 2.54 C0.3 2.48, 0.25 2.4, 0.21 2.32 C0.16 2.25, 0.12 2.16, 0.09 2.08 C0.06 1.99, 0.04 1.91, 0.02 1.82 C0.01 1.73, 0 1.64, 0 1.55 C0 1.46, 0.01 1.37, 0.02 1.28 C0.04 1.19, 0.06 1.1, 0.09 1.02 C0.12 0.93, 0.16 0.85, 0.21 0.77 C0.25 0.7, 0.3 0.62, 0.36 0.55 C0.42 0.48, 0.48 0.42, 0.55 0.36 C0.62 0.3, 0.7 0.25, 0.77 0.21 C0.85 0.16, 0.93 0.12, 1.02 0.09 C1.1 0.06, 1.19 0.04, 1.28 0.02 C1.37 0.01, 1.46 0, 1.55 0 C1.64 0, 1.73 0.01, 1.82 0.02 C1.91 0.04, 1.99 0.06, 2.08 0.09 C2.16 0.12, 2.25 0.16, 2.32 0.21 C2.4 0.25, 2.48 0.3, 2.54 0.36 C2.61 0.42, 2.68 0.48, 2.74 0.55 C2.79 0.62, 2.85 0.7, 2.89 0.77 C2.94 0.85, 2.97 0.93, 3 1.02 C3.04 1.1, 3.06 1.19, 3.07 1.28 C3.09 1.37, 3.09 1.5, 3.1 1.55 C3.1 1.59, 3.1 1.5, 3.1 1.55" stroke="transparent" stroke-width="1" fill="none"></path></g><g stroke-linecap="round" transform="translate(47.07197570800781 47.3920373916626) rotate(0 1.5490046739578247 1.5490046739578247)"><path d="M3.1 1.55 C3.1 1.64, 3.09 1.73, 3.07 1.82 C3.06 1.91, 3.04 1.99, 3 2.08 C2.97 2.16, 2.94 2.25, 2.89 2.32 C2.85 2.4, 2.79 2.48, 2.74 2.54 C2.68 2.61, 2.61 2.68, 2.54 2.74 C2.48 2.79, 2.4 2.85, 2.32 2.89 C2.25 2.94, 2.16 2.97, 2.08 3 C1.99 3.04, 1.91 3.06, 1.82 3.07 C1.73 3.09, 1.64 3.1, 1.55 3.1 C1.46 3.1, 1.37 3.09, 1.28 3.07 C1.19 3.06, 1.1 3.04, 1.02 3 C0.93 2.97, 0.85 2.94, 0.77 2.89 C0.7 2.85, 0.62 2.79, 0.55 2.74 C0.48 2.68, 0.42 2.61, 0.36 2.54 C0.3 2.48, 0.25 2.4, 0.21 2.32 C0.16 2.25, 0.12 2.16, 0.09 2.08 C0.06 1.99, 0.04 1.91, 0.02 1.82 C0.01 1.73, 0 1.64, 0 1.55 C0 1.46, 0.01 1.37, 0.02 1.28 C0.04 1.19, 0.06 1.1, 0.09 1.02 C0.12 0.93, 0.16 0.85, 0.21 0.77 C0.25 0.7, 0.3 0.62, 0.36 0.55 C0.42 0.48, 0.48 0.42, 0.55 0.36 C0.62 0.3, 0.7 0.25, 0.77 0.21 C0.85 0.16, 0.93 0.12, 1.02 0.09 C1.1 0.06, 1.19 0.04, 1.28 0.02 C1.37 0.01, 1.46 0, 1.55 0 C1.64 0, 1.73 0.01, 1.82 0.02 C1.91 0.04, 1.99 0.06, 2.08 0.09 C2.16 0.12, 2.25 0.16, 2.32 0.21 C2.4 0.25, 2.48 0.3, 2.54 0.36 C2.61 0.42, 2.68 0.48, 2.74 0.55 C2.79 0.62, 2.85 0.7, 2.89 0.77 C2.94 0.85, 2.97 0.93, 3 1.02 C3.04 1.1, 3.06 1.19, 3.07 1.28 C3.09 1.37, 3.09 1.5, 3.1 1.55 C3.1 1.59, 3.1 1.5, 3.1 1.55" stroke="none" stroke-width="0" fill="#aecbfa"></path><path d="M3.1 1.55 C3.1 1.64, 3.09 1.73, 3.07 1.82 C3.06 1.91, 3.04 1.99, 3 2.08 C2.97 2.16, 2.94 2.25, 2.89 2.32 C2.85 2.4, 2.79 2.48, 2.74 2.54 C2.68 2.61, 2.61 2.68, 2.54 2.74 C2.48 2.79, 2.4 2.85, 2.32 2.89 C2.25 2.94, 2.16 2.97, 2.08 3 C1.99 3.04, 1.91 3.06, 1.82 3.07 C1.73 3.09, 1.64 3.1, 1.55 3.1 C1.46 3.1, 1.37 3.09, 1.28 3.07 C1.19 3.06, 1.1 3.04, 1.02 3 C0.93 2.97, 0.85 2.94, 0.77 2.89 C0.7 2.85, 0.62 2.79, 0.55 2.74 C0.48 2.68, 0.42 2.61, 0.36 2.54 C0.3 2.48, 0.25 2.4, 0.21 2.32 C0.16 2.25, 0.12 2.16, 0.09 2.08 C0.06 1.99, 0.04 1.91, 0.02 1.82 C0.01 1.73, 0 1.64, 0 1.55 C0 1.46, 0.01 1.37, 0.02 1.28 C0.04 1.19, 0.06 1.1, 0.09 1.02 C0.12 0.93, 0.16 0.85, 0.21 0.77 C0.25 0.7, 0.3 0.62, 0.36 0.55 C0.42 0.48, 0.48 0.42, 0.55 0.36 C0.62 0.3, 0.7 0.25, 0.77 0.21 C0.85 0.16, 0.93 0.12, 1.02 0.09 C1.1 0.06, 1.19 0.04, 1.28 0.02 C1.37 0.01, 1.46 0, 1.55 0 C1.64 0, 1.73 0.01, 1.82 0.02 C1.91 0.04, 1.99 0.06, 2.08 0.09 C2.16 0.12, 2.25 0.16, 2.32 0.21 C2.4 0.25, 2.48 0.3, 2.54 0.36 C2.61 0.42, 2.68 0.48, 2.74 0.55 C2.79 0.62, 2.85 0.7, 2.89 0.77 C2.94 0.85, 2.97 0.93, 3 1.02 C3.04 1.1, 3.06 1.19, 3.07 1.28 C3.09 1.37, 3.09 1.5, 3.1 1.55 C3.1 1.59, 3.1 1.5, 3.1 1.55" stroke="transparent" stroke-width="1" fill="none"></path></g></svg>